<svg width="12" height="14" viewBox="0 0 12 14" fill="none" xmlns="http://www.w3.org/2000/svg">
<path fill-rule="evenodd" clip-rule="evenodd" d="M2.75 2.75V3.25H0.75C0.335786 3.25 0 3.58579 0 4C0 4.41421 0.335786 4.75 0.75 4.75H1.51389L1.89504 11.6109C1.95392 12.6708 2.8305 13.5 3.89196 13.5H8.10802C9.16948 13.5 10.0461 12.6708 10.1049 11.6109L10.4861 4.75H11.25C11.6642 4.75 12 4.41421 12 4C12 3.58579 11.6642 3.25 11.25 3.25H9.25V2.75C9.25 1.50736 8.24264 0.5 7 0.5H5C3.75736 0.5 2.75 1.50736 2.75 2.75ZM5 2C4.58579 2 4.25 2.33579 4.25 2.75V3.25H7.75V2.75C7.75 2.33579 7.41421 2 7 2H5ZM5.25 6.75C5.25 6.33579 4.91421 6 4.5 6C4.08579 6 3.75 6.33579 3.75 6.75V11.25C3.75 11.6642 4.08579 12 4.5 12C4.91421 12 5.25 11.6642 5.25 11.25V6.75ZM8.25 6.75C8.25 6.33579 7.91421 6 7.5 6C7.08579 6 6.75 6.33579 6.75 6.75V11.25C6.75 11.6642 7.08579 12 7.5 12C7.91421 12 8.25 11.6642 8.25 11.25V6.75Z" fill="#DC4067"/>
</svg>
